# xmcd
#
# Track frame offsets: 
#        150
#        14548
#        26253
#        39410
#        51208
#        60129
#        74296
#        92945
#        108291
#        119435
#        131851
#        145268
#        155832
#        173325
#        185630
#        197416
#        209121
#        225007
#        246201
#        262058
#
# Disc length: 3655 seconds
#
# Revision: 0
# Processed by: cddbd v1.5.2PL0 Copyright (c) Steve Scherf et al.
# Submitted via: ExactAudioCopyFreeDBPlugin 1.0
#
DISCID=180e4514
DTITLE=Various Artist - 20 Country Classics
DYEAR=1900
DGENRE=Country
TTITLE0=John Denver - Take Me Home Country Roads
TTITLE1=Johnny Cash - Ring of Fire
TTITLE2=Lynn Anderson - Rose Garden
TTITLE3=Dolly Parton - Jolene
TTITLE4=Frankie Laine - Rawhide
TTITLE5=Glen Campbell - Rhinestone Cowboy
TTITLE6=Kenny Rogers and Dolly Parton - Islands in the stream
TTITLE7=Billy Ray Cyrus - Achy Breaky Heart
TTITLE8=Conway Twitty - Hello Darlin'
TTITLE9=Johnny Cash and June Carter - Jackson
TTITLE10=Loretta Lunn - Coal Miner's Daughter
TTITLE11=Leroy Van Dyke - Walk On By
TTITLE12=Linda Ronstadt - Blue Bayou
TTITLE13=Patsy Cline feat. The Jordanaires - Crazy
TTITLE14=Wanda Jackson - Right Or Wrong
TTITLE15=Tennessee Ernie Ford - Sixteen Tons
TTITLE16=The Band - The Night They Drove Old Dixie Down
TTITLE17=Lynyrd Skynyrd - Sweet Home Alabama
TTITLE18=Willie Nelson - Always On My Mind
TTITLE19=Tammy Wynette - Stand By Your Man
EXTD=
EXTT0=
EXTT1=
EXTT2=
EXTT3=
EXTT4=
EXTT5=
EXTT6=
EXTT7=
EXTT8=
EXTT9=
EXTT10=
EXTT11=
EXTT12=
EXTT13=
EXTT14=
EXTT15=
EXTT16=
EXTT17=
EXTT18=
EXTT19=
PLAYORDER=
